<svg width="20" height="23" viewBox="0 0 20 23" fill="none" xmlns="http://www.w3.org/2000/svg">
    <path
        d="M12 23C11.744 23 11.584 22.8827 11.52 22.648L9.12 14.552C9.07733 14.4453 9.00267 14.392 8.896 14.392H7.68C7.57333 14.392 7.49867 14.456 7.456 14.584L6.496 22.52C6.47467 22.6693 6.41067 22.7867 6.304 22.872C6.21867 22.9573 6.10133 23 5.952 23H1.056C0.906667 23 0.789333 22.9573 0.704 22.872C0.64 22.7867 0.618667 22.6693 0.64 22.52L3.296 1.08C3.31733 0.930665 3.37067 0.813332 3.456 0.727999C3.54133 0.642665 3.65867 0.599998 3.808 0.599998H13.216C15.136 0.599998 16.6613 1.144 17.792 2.232C18.9227 3.32 19.488 4.792 19.488 6.648C19.488 6.86133 19.4667 7.224 19.424 7.736C19.2533 9.144 18.7627 10.3813 17.952 11.448C17.1627 12.4933 16.1493 13.2613 14.912 13.752C14.848 13.7733 14.8053 13.816 14.784 13.88C14.7627 13.9227 14.7627 13.9653 14.784 14.008L17.664 22.424C17.6853 22.4667 17.696 22.5307 17.696 22.616C17.696 22.7227 17.6533 22.8187 17.568 22.904C17.4827 22.968 17.3653 23 17.216 23H12ZM8.736 5.752C8.62933 5.752 8.55467 5.816 8.512 5.944L8.064 9.624C8.064 9.752 8.11733 9.816 8.224 9.816H11.104C11.8293 9.816 12.4267 9.60267 12.896 9.176C13.3867 8.74933 13.632 8.19467 13.632 7.512C13.632 6.97867 13.44 6.552 13.056 6.232C12.6933 5.912 12.2133 5.752 11.616 5.752H8.736Z"
        fill="url(#paint0_linear_419_31167)" />
    <defs>
        <linearGradient id="paint0_linear_419_31167" x1="15.3743" y1="-3.5" x2="-5.14648"
            y2="13.9178" gradientUnits="userSpaceOnUse">
            <stop offset="0.546875" stop-color="#EA736D" />
            <stop offset="1" stop-color="#4658BC" />
        </linearGradient>
    </defs>
</svg>
    